<svg version="1.0" width="2017.751" height="1011.002" viewBox="0 0 1513.314 758.251" preserveAspectRatio="xMidYMid" xmlns:xlink="http://www.w3.org/1999/xlink" xmlns="http://www.w3.org/2000/svg"><defs><clipPath clipPathUnits="userSpaceOnUse" id="prefix__b"><use xlink:href="#prefix__a"/></clipPath></defs><g clip-path="url(#prefix__b)" transform="translate(-243.186 -611.93)"><path d="M1000 991v379l-75.7-.2-75.8-.3-.3-302.8-.2-302.8-122.8.4c-87.5.3-125 .7-130.7 1.6-12.2 1.8-23.9 4.2-24.9 5.1-.5.5-1.5.6-2.2.3-.8-.3-1.4 0-1.4.6s-.6.8-1.4.5c-1.6-.6-21.7 5.9-33.3 10.8-6.4 2.7-7.2 3.3-6.1 4.7 1.2 1.4 1.1 1.4-.4.2-1.5-1.1-2.8-.8-9.5 2.9-12.9 6.9-33.5 21-32.9 22.5.3.9 0 1.2-.8.9-1.5-.6-10.8 7.4-10.1 8.7.4.5 0 .7-.7.4-2.5-1-30.5 29.6-29.1 31.8.3.6.1.7-.5.3-1.3-.8-3.6 3-2.7 4.4.3.5 0 .8-.7.5-.8-.3-3.1 2.4-5.9 6.8-6.4 9.9-6.2 9.6-4.7 11.5 1.1 1.5 1.1 1.6-.3.4-1.5-1.1-2.2-.3-5.8 6.8-2.3 4.4-3.9 8.6-3.5 9.2.4.6.3.8-.4.5-.8-.6-6.7 11.5-7.7 15.8-.1.5-.7 2.3-1.3 3.8-.7 1.6-1.2 3.3-1.2 3.8s-.4 1.7-1 2.7c-1.6 2.9-5.8 20-8 32.7-2.7 15.2-3.7 43.1-2.1 57.5 1.4 13.1 4.2 29 5 28.6.3-.2.7 1.2.8 3.3.1 3.5 4.1 16.2 8.1 26.5 1.2 3.1 2.2 4.4 2.6 3.5.3-.8.3-.4 0 .8-.3 1.3.6 4.3 2.3 7.5 1.5 2.9 2.8 5.5 2.8 5.8.7 2.4 1.9 3.9 2.8 3.3.5-.3.7-.1.4.5-.9 1.4.3 4.3 1.4 3.6.5-.3.7.1.4.8-.4 1.1 4.4 9.9 7.3 13.3.4.5.9 1.4.9 1.8.4 2.8 18.2 25.2 19.9 25.1.8-.1 1.1.2.8.7-.6 1.1 3 6 4 5.4.3-.3.4-.2.1.2-.8 1.1 6.7 8.3 7.9 7.6.6-.3.8-.2.3.2-.9 1 2.1 4.5 4 4.5.7 0 1.3.5 1.3 1.1 0 .6.7.9 1.4.6 1-.4 1.3-.1 1 .7-.6 1.6 1.9 3.8 3.7 3.4.8-.2 1.3.2 1.2.9-.3 1.6 8.5 8.6 9.8 7.7.8-.4.9-.3.5.4-.6 1 1.5 2.7 9.3 7.7.8.5 2.2 1.6 2.9 2.3.8.7 2.1 1.1 2.9.8.8-.3 1.2-.2.9.3-.8 1.2.5 2.1 12.7 8.5 6.1 3.3 11.2 5.4 12 5 .6-.4.9-.4.5.1-1 1 11.2 6.7 12.9 6.1.9-.4 1.1-.1.7.6-.5.8-.2.9 1 .5.9-.4 1.5-.3 1.2.1-.6.9 19.1 7.2 31.9 10.1 23.1 5.3 24.3 5.4 112.2 5.8 51.6.3 82.9.1 84-.5 1.7-1 1.8 2.1 1.6 75.6-.2 66.4-.5 76.7-1.7 77.2-.9.3-40.6.2-88.3-.1-81.4-.6-87.8-.7-103.2-2.8-9.1-1.2-19.6-2.8-23.5-3.6-3.9-.8-8.4-1.6-10.1-1.9-1.6-.2-3.7-.6-4.5-.9-4-1.5-18.2-4.7-19-4.2-.4.3-1 .2-1.2-.2-.1-.5-4.3-2.1-9.3-3.6-9.1-2.9-28.5-9.9-34-12.3-10.4-4.5-14-6.1-22.6-10.4-17.1-8.5-36.8-19.9-44.6-25.8-1.8-1.3-3.9-2.2-4.7-1.9-1 .4-1.3.1-1-.7.3-.8-1-2.3-3.3-3.7-2.1-1.3-6.6-4.5-10-7.1-6.3-4.8-8-5.8-6.7-3.6.4.7.3.8-.5.4-.6-.4-.9-1.1-.6-1.6.6-1-6.5-7.1-7.7-6.4-.4.3-.7.1-.6-.4.2-.5-2.2-3.1-5.2-5.8-3-2.6-9.8-9-15-14.2-5.2-5.1-10-9-10.7-8.8-.7.3-1-.1-.7-.8.6-1.6-10.4-13.8-11.7-13-.5.3-.6-.3-.2-1.2.5-1.3.3-1.6-1-1.1-1.1.4-1.4.2-1.1-.7.3-.8 0-1.7-.7-2.2-.8-.4-1-.3-.5.4 1.1 1.8 0 1.4-1.5-.5-1-1.1-1-1.4-.1-.9 2.3 1.4 1.2-.4-4.5-7.7-3.2-4-8.5-10.9-11.7-15.4-3.2-4.6-6.2-8-6.6-7.8-1.2.7-3.3-2.3-2.5-3.5.4-.6-1.8-5-4.8-9.8-3-4.8-6.7-11.1-8.1-14-1.7-3.2-3.1-5-3.8-4.6-.6.4-.8.3-.5-.4.8-1.1-3.6-10.5-6.2-13.5-.9-1.1-1.6-2.4-1.6-3 0-1.9-6.8-17.6-7.4-17.2-.3.1-.7-.7-.7-1.8-.1-1.2-1.6-5.8-3.3-10.2-3.7-9.2-5.9-16-11.5-35.5-2.5-8.9-7.4-34.5-9.2-48-.9-7.5-1.8-23.5-2.1-40-.5-28.3.6-46.4 4.3-68.5 4.7-28.6 14.9-63.8 25-86.8 1.4-3.1 2.2-6.3 1.8-7-.4-.6-.4-.9.1-.5.8.7 14.7-25.5 14.8-28 0-.6.4-1.2.8-1.2 1.2 0 8.1-12.9 7.4-14-.4-.6-.2-.9.4-.8 1.4.4 19.2-26.2 18.4-27.5-.3-.6-.1-.7.5-.3 1.3.8 13.3-14.3 12.5-15.7-.3-.6-.2-.7.4-.4.5.3 3.2-1.9 5.9-5.1 11.6-13.6 31.3-32.8 45.2-44.2 2.4-1.9 4-4 3.8-4.7-.3-.7-.1-1.5.5-1.8.5-.4.9-.3.8.2-.1.4-.1 1.2 0 1.6.1 1 14.6-10.2 14.6-11.3 0-.5.4-1.2.9-1.7s.6-.2.1.6c-1.1 1.9-.4 1.5 11.5-6.3 14.3-9.4 18.4-12 19-12.2 2.1-.4 3.9-1.8 3.4-2.5-.3-.5.2-.6 1-.3 1 .4 1.6.1 1.6-.7 0-.7.3-.9.7-.6.3.4 1.1.2 1.8-.3 1.8-1.5 25.3-13 26.5-13 .6 0 .8-.5.4-1.2-.4-.6-.3-.8.3-.5.6.4 7.1-1.7 14.4-4.7 14.5-5.8 25.4-9.6 33.6-11.6 2.9-.8 4.9-1.8 4.6-2.3-.3-.6-.1-.7.5-.3 1.4.8 8.4-.3 7.8-1.3-.2-.3.8-.6 2.2-.7 1.5 0 7.2-1 12.7-2.2 10.2-2.2 26.9-4.9 36-5.9 16.4-1.7 47.8-2 224.8-2.1l195.7-.2zm401.8-378c18.3 1.1 38.8 3.8 54.3 7.1 5.7 1.2 11.6 2.3 13.1 2.3 1.4.1 2.5.3 2.3.6-.2.3 2.9 1.4 6.8 2.4 10 2.6 16.6 4.6 20.4 6.2 1.7.8 3.6 1.4 4.1 1.4.6 0 7.2 2.5 14.7 5.5 7.6 3 14.2 5.2 14.9 4.8.6-.3.8-.3.4.2-.7.7 26.9 15 28.5 14.7.4-.1.7.2.7.6 0 .8 3.5 2.8 5.3 3 .4.1 1.9 1 3.4 2.1 1.4 1.2 3 1.8 3.6 1.4.5-.3.7-.1.4.4-.4.6 0 1.4.9 1.7.9.3 6.3 3.8 12 7.6 10.6 7.2 12.1 7.9 10.8 5.7-.4-.7-.3-.9.2-.4s.9 1.2.9 1.7c0 .4 6.5 5.9 14.4 12.1 7.9 6.3 20.4 17.1 27.6 24.1 7.3 7 13.5 12.4 13.9 12 .4-.4.6-.2.4.5-.3 1.1 9.5 13.3 16.3 20.5 1.5 1.5 2.5 2.9 2.2 3.1-.2.3.7 1.3 2 2.3 1.3 1.1 2.4 2.2 2.5 2.7.1.4 2.5 4 5.5 8 2.9 3.9 6.8 9.5 8.6 12.4 1.9 2.9 3.8 5 4.2 4.7.5-.3.6.1.4.8-.3.8.3 2.3 1.3 3.4 1.1 1.1 2.1 2.4 2.3 2.9.9 2.3 9.1 16.5 9.5 16.5.2 0 .1-.8-.2-1.8-.5-1.4-.4-1.4.4-.2.6.8.9 1.7.6 2.2-.3.4 2.9 7.4 6.9 15.5 4.1 8.1 8 16.4 8.7 18.3.7 1.9 1.7 3.9 2.2 4.5.4.5.8 1.7.8 2.8 0 1 .4 1.6.9 1.3.5-.3.8 0 .7.7 0 .6 2.5 8.9 5.6 18.3 6.9 20.8 10.9 36.2 14.2 55.4 4.5 26 5.1 34 5.1 67-.1 33.7-1 43.9-6.1 70.4-2.7 13.7-10.8 44.6-12.7 48.1-.6 1.1-1 2.2-1 2.5 0 .3-.3 1.4-.7 2.5-.4 1.1-1.9 5.1-3.3 9-3.4 9.4-4.8 12.7-12.3 28.3-3.5 7.4-6.1 13.9-5.7 14.5.3.6.1.7-.5.3-1.4-.8-3.6 3-2.6 4.6.4.6.3.8-.3.5-.5-.3-1.7.9-2.5 2.7-.9 1.8-4.6 7.8-8.2 13.5-3.7 5.7-6.3 10.7-6 11.4.4.7.4.9-.1.5-1.1-1-5.6 5.2-4.8 6.5.3.6.1.7-.5.3-1.3-.8-3.5 2.8-2.4 3.9.4.5.2.5-.4.2-.7-.4-1.4-.1-1.7.6-.2.6-3.4 4.9-7.1 9.4-6.5 8.1-7.8 10.1-5.3 8.7.8-.5.8-.3-.2.9-.7.9-1.7 1.5-2.1 1.2-1.2-.8-3.3 2.3-2.4 3.6.4.8.3.9-.5.5-1.3-.8-5 3.1-4.6 4.9.1.5 0 .7-.2.3-.3-.5-6.2 5-13.1 12-7 7-15.6 15.4-19.2 18.7-3.6 3.2-6.4 6.3-6.2 6.8.1.5-.2.6-.7.3-.8-.5-3.5 1.4-11.7 8.3-1.1 1-4.8 3.7-8.2 6.1-5.7 4-6.1 4.5-4.6 6.1 1.8 2 0 3.9-1.9 2-.9-.9-.7-1.1.8-.5 1.9.6 1.9.6.4-1.1-1.6-1.6-2-1.5-7 2.2-8.9 6.5-24.4 15.6-44.1 26.1-2.1 1-3.4 2.3-3 2.7.4.5.1.5-.5.1-.7-.4-4.8.9-9 2.9-4.3 2-9.6 4.5-11.8 5.5-5.9 2.7-28.3 10.7-37.5 13.3-4.4 1.3-7.7 2.7-7.3 3.2.5.4.3.5-.4.1-1.6-.9-18.4 3.3-20.7 5.3-1.1.9-1.6 1-1.2.3.6-.9.2-1.1-1.6-.8-7.3 1.7-26.1 4.8-37.8 6.3-12.1 1.5-30.6 1.7-175.3 2.2-88.9.3-161.7.3-161.7 0 0-.4-.8-.6-1.7-.5-1.7.1-1.8-4.1-1.8-75.6V1218l160-.3c167.2-.4 159.6-.2 181-4.1 7.9-1.4 21.6-5 30.5-7.9 17.8-5.8 41.9-17.4 40.2-19.2-.4-.4-.2-.5.5-.1 1.5.8 7.3-2 7.3-3.6 0-.6.3-.9.6-.5 1.2 1.2 28.5-18.6 28.1-20.5-.1-.6.7-1.2 1.7-1.4 2.1-.3 3.8-2.3 3-3.6-.3-.4.1-.6.8-.3 1.7.7 10-6.4 9.1-7.8-.3-.5-.2-.7.4-.4 1.3.8 7.5-6.2 6.6-7.6-.3-.5-.1-.7.5-.3.9.5 9.8-8.7 9.1-9.6-.1-.2 1.4-2.1 3.4-4.3 3.6-3.9 4.9-6.3 2.5-4.9-.7.4-.8.3-.4-.5.4-.6 1.1-.9 1.6-.6 1.7 1.1 17.7-24.6 16.4-26.6-.5-.8-.3-.9.6-.4 1 .6 1.2.4.7-.9-.4-.9-.3-1.5.1-1.2 1.2.7 8.5-15.1 7.6-16.6-.4-.7-.3-1 .1-.5 1.8 1.5 9.4-21.8 13-39.8 6.2-30.5 5.8-62.8-1.1-92.8-2.4-10.4-7-26.2-8.2-28.2-.4-.6-.7-1.3-.7-1.6 0-2-7-16.7-7.7-16.3-.4.3-.5-.3-.1-1.2.5-1.3.3-1.5-.7-.9-.8.5-1.1.4-.7-.2.4-.6-.9-4.3-2.9-8.2-3.2-6.4-3.8-7-5.2-5.9-1.5 1.1-1.5 1.1-.4-.3 1.3-1.7.7-4.9-.9-4.9-.5 0-.9-.4-.9-1 0-1.8-7.1-12.1-7.9-11.5-.5.2-.8-.3-.7-1.3 0-.9-.5-1.6-1.2-1.4-.7.1-1.2-.5-1-1.5.2-1-.2-1.7-.9-1.6-.7.2-1.2-.1-1-.7.4-1.6-10.7-15-12.1-14.5-.7.3-1 0-.7-.5.8-1.3-14.2-16.5-16.3-16.5-.9-.1-1.6-.6-1.5-1.2.3-1.4-5.1-6.4-7.3-6.7-1.1-.2-1.9-.9-1.9-1.7 0-.8-.8-1.3-1.7-1.3-1 .1-1.6-.3-1.5-1 .2-1.3-21.9-16.1-32.6-21.7-6.7-3.5-8-3.9-9.5-2.7-1.5 1.1-1.5 1.1-.4-.3 1.1-1.4.2-2-7-4.9-13.3-5.2-28.9-10.2-30.4-9.6-.8.3-1.4.1-1.4-.5s-.6-.9-1.4-.6c-.7.3-1.7.2-2.2-.3-1-.9-12.5-3.3-24.9-5.2-5.9-.8-50.4-1.2-169-1.5l-161-.4-.3-74.7c-.1-41.1 0-75.3.3-76 .6-1.5 300.6-1.8 326.3-.2zM330 737c0 .5-.5 1-1.1 1-.5 0-.7-.5-.4-1 .3-.6.8-1 1.1-1 .2 0 .4.4.4 1zm-5.5 15.9c-.9.8-3.6 1-3 .2.2-.4 1.1-.8 2-.8.8 0 1.3.3 1 .6zm1165.2 44.6c0 .8-.4 1.2-.9.9-.5-.3-.6-1-.3-1.5.9-1.3 1.2-1.1 1.2.6zM439.5 862.9c-.9.8-3.6 1-3 .2.2-.4 1.1-.8 2-.8.8 0 1.3.3 1 .6zm.2 257.8c0 .9-.4 1-1.4.2-.7-.6-1.3-1.2-1.3-1.4 0-.1.6-.2 1.3-.2.8 0 1.4.6 1.4 1.4zm1109.3 15.7c0 .2-.6.9-1.4 1.5-1.1.9-1.6.9-2.2 0-.4-.7-.3-.9.4-.5.6.3 1.3.2 1.7-.4.6-1 1.5-1.4 1.5-.6zm177.1 13.3c-1.2 2-1.4 1.4-.5-1.2.4-.9.9-1.4 1.1-1.1.3.2 0 1.3-.6 2.3zm-225.1 27.7c0 .2-.7.7-1.6 1-.8.3-1.2.2-.9-.4.6-1 2.5-1.4 2.5-.6zm-1203.9 13.9c-1 .9-1.1.8-.5-.6.3-1 .9-1.5 1.2-1.2.3.3 0 1.1-.7 1.8zm1395.2 14.2c-.3.9-.8 1.4-1 1.1-.3-.3-.2-.9.2-1.5.9-1.6 1.5-1.3.8.4zm-36.3 44.8c0 .2-1.2 1.4-2.7 2.8l-2.8 2.4 2.4-2.8c2.3-2.5 3.1-3.2 3.1-2.4zm-1309.2 3.3c-.1.5-.9.9-1.6 1-1 .2-1.1-.1-.1-1.2 1.2-1.4 2.4-1.3 1.7.2zm1299.7 7.1c-.2 1-.4 1.9-.4 2.1-.1.2-.6 0-1.1-.3-.8-.5-.7-1.1.1-2.1 1.5-1.8 1.8-1.8 1.4.3zm-1290.5.8c0 .2-.6.8-1.3 1.4-1 .8-1.4.7-1.4-.2 0-.8.6-1.4 1.4-1.4.7 0 1.3.1 1.3.2zm45.7 40c0 .8-.4 1.2-.9.9-.5-.3-.6-1-.3-1.5.9-1.3 1.2-1.1 1.2.6z" fill="#fff" stroke-width=".1" id="prefix__a"/></g></svg>